<?xml version="1.0" encoding="UTF-8" standalone="no"?>
<!DOCTYPE svg PUBLIC "-//W3C//DTD SVG 1.1//EN"
 "http://www.w3.org/Graphics/SVG/1.1/DTD/svg11.dtd">
<!-- Generated by graphviz version 2.42.4 (0)
 -->
<!-- Title: PiTracDependencies Pages: 1 -->
<svg width="241pt" height="260pt"
 viewBox="0.00 0.00 241.00 260.00" xmlns="http://www.w3.org/2000/svg" xmlns:xlink="http://www.w3.org/1999/xlink">
<g id="graph0" class="graph" transform="scale(1 1) rotate(0) translate(4 256)">
<title>PiTracDependencies</title>
<polygon fill="white" stroke="transparent" points="-4,4 -4,-256 237,-256 237,4 -4,4"/>
<!-- Camera -->
<g id="node1" class="node">
<title>Camera</title>
<path fill="#e5e5ff" stroke="black" d="M89,-36C89,-36 54,-36 54,-36 48,-36 42,-30 42,-24 42,-24 42,-12 42,-12 42,-6 48,0 54,0 54,0 89,0 89,0 95,0 101,-6 101,-12 101,-12 101,-24 101,-24 101,-30 95,-36 89,-36"/>
<text text-anchor="middle" x="71.5" y="-14.3" font-family="Times,serif" font-size="14.00">Camera</text>
</g>
<!-- tests -->
<g id="node6" class="node">
<title>tests</title>
<path fill="none" stroke="black" d="M221,-36C221,-36 191,-36 191,-36 185,-36 179,-30 179,-24 179,-24 179,-12 179,-12 179,-6 185,0 191,0 191,0 221,0 221,0 227,0 233,-6 233,-12 233,-12 233,-24 233,-24 233,-30 227,-36 221,-36"/>
<text text-anchor="middle" x="206" y="-14.3" font-family="Times,serif" font-size="14.00">tests</text>
</g>
<!-- Camera&#45;&gt;tests -->
<g id="edge1" class="edge">
<title>Camera&#45;&gt;tests</title>
<path fill="none" stroke="black" d="M101.25,-18C120.91,-18 147.15,-18 168.32,-18"/>
<polygon fill="black" stroke="black" points="168.56,-21.5 178.56,-18 168.56,-14.5 168.56,-21.5"/>
</g>
<!-- post_processing_stages -->
<g id="node2" class="node">
<title>post_processing_stages</title>
<path fill="#ffe5e5" stroke="black" d="M131,-252C131,-252 12,-252 12,-252 6,-252 0,-246 0,-240 0,-240 0,-228 0,-228 0,-222 6,-216 12,-216 12,-216 131,-216 131,-216 137,-216 143,-222 143,-228 143,-228 143,-240 143,-240 143,-246 137,-252 131,-252"/>
<text text-anchor="middle" x="71.5" y="-230.3" font-family="Times,serif" font-size="14.00">post_processing_stages</text>
</g>
<!-- core -->
<g id="node7" class="node">
<title>core</title>
<path fill="none" stroke="black" d="M221,-171C221,-171 191,-171 191,-171 185,-171 179,-165 179,-159 179,-159 179,-147 179,-147 179,-141 185,-135 191,-135 191,-135 221,-135 221,-135 227,-135 233,-141 233,-147 233,-147 233,-159 233,-159 233,-165 227,-171 221,-171"/>
<text text-anchor="middle" x="206" y="-149.3" font-family="Times,serif" font-size="14.00">core</text>
</g>
<!-- post_processing_stages&#45;&gt;core -->
<g id="edge2" class="edge">
<title>post_processing_stages&#45;&gt;core</title>
<path fill="none" stroke="black" d="M125.81,-215.91C131.76,-213.22 137.61,-210.24 143,-207 156.29,-199.01 169.47,-188.08 180.23,-178.14"/>
<polygon fill="black" stroke="black" points="182.77,-180.56 187.61,-171.13 177.95,-175.48 182.77,-180.56"/>
</g>
<!-- sim/common -->
<g id="node3" class="node">
<title>sim/common</title>
<path fill="#ffffd0" stroke="black" d="M104,-198C104,-198 39,-198 39,-198 33,-198 27,-192 27,-186 27,-186 27,-174 27,-174 27,-168 33,-162 39,-162 39,-162 104,-162 104,-162 110,-162 116,-168 116,-174 116,-174 116,-186 116,-186 116,-192 110,-198 104,-198"/>
<text text-anchor="middle" x="71.5" y="-176.3" font-family="Times,serif" font-size="14.00">sim/common</text>
</g>
<!-- sim/common&#45;&gt;core -->
<g id="edge3" class="edge">
<title>sim/common&#45;&gt;core</title>
<path fill="none" stroke="black" d="M116.25,-171.08C133.2,-167.63 152.37,-163.73 168.54,-160.43"/>
<polygon fill="black" stroke="black" points="169.59,-163.79 178.69,-158.36 168.19,-156.93 169.59,-163.79"/>
</g>
<!-- sim/gspro -->
<g id="node4" class="node">
<title>sim/gspro</title>
<path fill="#ffffd0" stroke="black" d="M95,-144C95,-144 48,-144 48,-144 42,-144 36,-138 36,-132 36,-132 36,-120 36,-120 36,-114 42,-108 48,-108 48,-108 95,-108 95,-108 101,-108 107,-114 107,-120 107,-120 107,-132 107,-132 107,-138 101,-144 95,-144"/>
<text text-anchor="middle" x="71.5" y="-122.3" font-family="Times,serif" font-size="14.00">sim/gspro</text>
</g>
<!-- sim/gspro&#45;&gt;core -->
<g id="edge4" class="edge">
<title>sim/gspro&#45;&gt;core</title>
<path fill="none" stroke="black" d="M107.31,-133.09C126.29,-136.96 149.75,-141.74 168.92,-145.65"/>
<polygon fill="black" stroke="black" points="168.3,-149.09 178.79,-147.66 169.69,-142.23 168.3,-149.09"/>
</g>
<!-- utils -->
<g id="node5" class="node">
<title>utils</title>
<path fill="#e5f5e5" stroke="black" d="M86.5,-90C86.5,-90 56.5,-90 56.5,-90 50.5,-90 44.5,-84 44.5,-78 44.5,-78 44.5,-66 44.5,-66 44.5,-60 50.5,-54 56.5,-54 56.5,-54 86.5,-54 86.5,-54 92.5,-54 98.5,-60 98.5,-66 98.5,-66 98.5,-78 98.5,-78 98.5,-84 92.5,-90 86.5,-90"/>
<text text-anchor="middle" x="71.5" y="-68.3" font-family="Times,serif" font-size="14.00">utils</text>
</g>
<!-- utils&#45;&gt;core -->
<g id="edge5" class="edge">
<title>utils&#45;&gt;core</title>
<path fill="none" stroke="black" d="M98.63,-79.57C112.37,-84.14 129.18,-90.7 143,-99 156.29,-106.99 169.47,-117.92 180.23,-127.86"/>
<polygon fill="black" stroke="black" points="177.95,-130.52 187.61,-134.87 182.77,-125.44 177.95,-130.52"/>
</g>
</g>
</svg>
